<mxfile host="app.diagrams.net" modified="2022-11-23T07:55:20.591Z" agent="5.0 (Windows NT 10.0; Win64; x64) AppleWebKit/537.36 (KHTML, like Gecko) Chrome/107.0.0.0 Safari/537.36 Edg/107.0.1418.52" etag="jAvzyrEjHPdWhnxP26WD" version="20.6.0" type="github">
  <diagram id="Khwr7qHY6XTU6Xif_HvH" name="第 1 页">
    <mxGraphModel dx="4044" dy="2772" grid="1" gridSize="10" guides="1" tooltips="1" connect="1" arrows="1" fold="1" page="0" pageScale="1" pageWidth="827" pageHeight="1169" background="none" math="0" shadow="0">
      <root>
        <mxCell id="0" />
        <mxCell id="1" parent="0" />
        <mxCell id="node12" value="&lt;p style=&quot;margin:0px;margin-top:4px;text-align:center;&quot;&gt;&lt;b&gt;备注&lt;/b&gt;&lt;/p&gt;&lt;p style=&quot;margin:0px;margin-top:4px;text-align:center;&quot;&gt;&lt;b&gt;ByNoticeController&lt;/b&gt;&lt;/p&gt;&lt;hr size=&quot;1&quot;&gt;&lt;p style=&quot;margin:0 0 0 4px;line-height:1.6;&quot;&gt;+ list(ByNoticeBo, PageQuery): TableDataInfo&amp;lt;ByNoticeVo&amp;gt;&lt;br&gt;+ addNotice(ByNoticeBo): R&amp;lt;Void&amp;gt;&lt;br&gt;+ add(ByNoticeBo): R&amp;lt;Void&amp;gt;&lt;br&gt;+ export(ByNoticeBo, HttpServletResponse): void&lt;br&gt;+ remove(String[]): R&amp;lt;Void&amp;gt;&lt;br&gt;+ edit(ByNoticeBo): R&amp;lt;Void&amp;gt;&lt;br&gt;+ getInfo(String): R&amp;lt;ByNoticeVo&amp;gt;&lt;/p&gt;&lt;hr size=&quot;1&quot;&gt;&lt;p style=&quot;margin:0 0 0 4px;line-height:1.6;&quot;&gt;+ ByNoticeController(IByNoticeService): &lt;/p&gt;" style="verticalAlign=top;align=left;overflow=fill;fontSize=14;fontFamily=Helvetica;html=1;rounded=0;shadow=0;comic=0;labelBackgroundColor=none;strokeWidth=1;" parent="1" vertex="1">
          <mxGeometry x="216.5" y="340" width="523.5" height="230" as="geometry" />
        </mxCell>
        <mxCell id="node4" value="&lt;div style=&quot;text-align: center;&quot;&gt;&lt;span style=&quot;background-color: initial;&quot;&gt;&lt;b&gt;排班发布记录&lt;/b&gt;&lt;/span&gt;&lt;/div&gt;&lt;p style=&quot;margin:0px;margin-top:4px;text-align:center;&quot;&gt;&lt;b&gt;ByScheduleDailyStateController&lt;/b&gt;&lt;/p&gt;&lt;hr size=&quot;1&quot;&gt;&lt;p style=&quot;margin:0 0 0 4px;line-height:1.6;&quot;&gt;+ export(ByScheduleDailyStateBo, HttpServletResponse): void&lt;br&gt;+ getInfo(String): R&amp;lt;ByScheduleDailyStateVo&amp;gt;&lt;br&gt;+ remove(String[]): R&amp;lt;Void&amp;gt;&lt;br&gt;+ publishScheduleDailyState(ByScheduleDailyStateBo): R&lt;br&gt;+ list(ByScheduleDailyStateBo, PageQuery): TableDataInfo&amp;lt;ByScheduleDailyStateVo&amp;gt;&lt;br&gt;+ add(ByScheduleDailyStateBo): R&amp;lt;Void&amp;gt;&lt;br&gt;+ edit(ByScheduleDailyStateBo): R&amp;lt;Void&amp;gt;&lt;/p&gt;&lt;hr size=&quot;1&quot;&gt;&lt;p style=&quot;margin:0 0 0 4px;line-height:1.6;&quot;&gt;+ ByScheduleDailyStateController(IByScheduleDailyStateService): &lt;/p&gt;" style="verticalAlign=top;align=left;overflow=fill;fontSize=14;fontFamily=Helvetica;html=1;rounded=0;shadow=0;comic=0;labelBackgroundColor=none;strokeWidth=1;" parent="1" vertex="1">
          <mxGeometry x="-350" y="-890" width="409" height="216" as="geometry" />
        </mxCell>
        <mxCell id="node7" value="&lt;div style=&quot;text-align: center;&quot;&gt;&lt;span style=&quot;background-color: initial;&quot;&gt;&lt;b&gt;周排班组类字典&lt;/b&gt;&lt;/span&gt;&lt;/div&gt;&lt;p style=&quot;margin:0px;margin-top:4px;text-align:center;&quot;&gt;&lt;b&gt;ByScheduleGroupController&lt;/b&gt;&lt;/p&gt;&lt;hr size=&quot;1&quot;&gt;&lt;p style=&quot;margin:0 0 0 4px;line-height:1.6;&quot;&gt;+ edit(ByScheduleGroupBo): R&amp;lt;Void&amp;gt;&lt;br&gt;+ list(ByScheduleGroupBo, PageQuery): TableDataInfo&amp;lt;ByScheduleGroupVo&amp;gt;&lt;br&gt;+ export(ByScheduleGroupBo, HttpServletResponse): void&lt;br&gt;+ add(ByScheduleGroupBo): R&amp;lt;Void&amp;gt;&lt;br&gt;+ getInfo(String): R&amp;lt;ByScheduleGroupVo&amp;gt;&lt;br&gt;+ remove(String[]): R&amp;lt;Void&amp;gt;&lt;/p&gt;&lt;hr size=&quot;1&quot;&gt;&lt;p style=&quot;margin:0 0 0 4px;line-height:1.6;&quot;&gt;+ ByScheduleGroupController(IByScheduleGroupService): &lt;/p&gt;" style="verticalAlign=top;align=left;overflow=fill;fontSize=14;fontFamily=Helvetica;html=1;rounded=0;shadow=0;comic=0;labelBackgroundColor=none;strokeWidth=1;" parent="1" vertex="1">
          <mxGeometry x="216.5" y="30" width="503.5" height="240" as="geometry" />
        </mxCell>
        <mxCell id="node8" value="&lt;div style=&quot;text-align: center;&quot;&gt;&lt;span style=&quot;background-color: initial;&quot;&gt;&lt;b&gt;周排班轮转&lt;/b&gt;&lt;/span&gt;&lt;b style=&quot;background-color: initial;&quot;&gt;模板&lt;/b&gt;&lt;/div&gt;&lt;p style=&quot;margin:0px;margin-top:4px;text-align:center;&quot;&gt;&lt;b&gt;BySchedulePatternController&lt;/b&gt;&lt;/p&gt;&lt;hr size=&quot;1&quot;&gt;&lt;p style=&quot;margin:0 0 0 4px;line-height:1.6;&quot;&gt;+ add(BySchedulePatternBo): R&amp;lt;Void&amp;gt;&lt;br&gt;+ updatePatternByWeekly(ByScheduleWeeklyBo): R&lt;br&gt;+ remove(String[]): R&amp;lt;Void&amp;gt;&lt;br&gt;+ export(BySchedulePatternBo, HttpServletResponse): void&lt;br&gt;+ list(BySchedulePatternBo, PageQuery): TableDataInfo&amp;lt;BySchedulePatternVo&amp;gt;&lt;br&gt;+ updateWeeklyByPattern2(BySchedulePatternBo): R&lt;br&gt;+ scheduleGroupStaffByPattern(BySchedulePatternBo): R&lt;br&gt;+ getInfo(String): R&amp;lt;BySchedulePatternVo&amp;gt;&lt;br&gt;+ edit(BySchedulePatternBo): R&amp;lt;Void&amp;gt;&lt;/p&gt;&lt;hr size=&quot;1&quot;&gt;&lt;p style=&quot;margin:0 0 0 4px;line-height:1.6;&quot;&gt;+ BySchedulePatternController(IBySchedulePatternService, IByScheduleWeeklyDetailService, IByScheduleWeeklyService, IByScheduleGroupStaffService): &lt;/p&gt;" style="verticalAlign=top;align=left;overflow=fill;fontSize=14;fontFamily=Helvetica;html=1;rounded=0;shadow=0;comic=0;labelBackgroundColor=none;strokeWidth=1;" parent="1" vertex="1">
          <mxGeometry x="239" y="-350" width="495" height="262" as="geometry" />
        </mxCell>
        <mxCell id="node3" value="&lt;div style=&quot;text-align: center;&quot;&gt;&lt;span style=&quot;background-color: initial;&quot;&gt;&lt;b&gt;周排班记录&lt;/b&gt;&lt;/span&gt;&lt;/div&gt;&lt;p style=&quot;margin:0px;margin-top:4px;text-align:center;&quot;&gt;&lt;b&gt;ByScheduleWeeklyController&lt;/b&gt;&lt;/p&gt;&lt;hr size=&quot;1&quot;&gt;&lt;p style=&quot;margin:0 0 0 4px;line-height:1.6;&quot;&gt;+ getPinyin(String): String&lt;br&gt;+ resetWeeklyGroup(ByScheduleWeeklyBo): R&lt;br&gt;+ export(ByScheduleWeeklyBo, HttpServletResponse): void&lt;br&gt;+ resetWeeklyGroupClassNo(ByScheduleWeeklyBo): R&lt;br&gt;+ add(ByScheduleWeeklyBo): R&amp;lt;Void&amp;gt;&lt;br&gt;+ editStaffGroup(ByScheduleWeeklyBo): R&lt;br&gt;+ remove(String[]): R&amp;lt;Void&amp;gt;&lt;br&gt;+ groupStep2(int, int, int): int&lt;br&gt;+ getGenderConsistency(ByScheduleWeeklyBo, String): int&lt;br&gt;+ updateWeeklyDetail(ByScheduleWeeklyBo): R&lt;br&gt;+ removeWeeklyByStaffNo(ByScheduleWeeklyBo): R&lt;br&gt;+ getWeeklyMemoList(ByScheduleWeeklyBo): R&lt;br&gt;+ exportExcel(ModelMap, Map&amp;lt;String, Object&amp;gt;, ByScheduleWeeklyBo, String, String, HttpServletRequest, HttpServletResponse): void&lt;br&gt;+ syncStandbyShift(ByStandbyShiftSyncBo): R&lt;br&gt;+ getScheduleWeeklyByShift(ByScheduleWeeklyBo): R&lt;br&gt;+ resetWeeklyStaffGroup(ByScheduleWeeklyBo): R&lt;br&gt;+ editGroup(ByScheduleWeeklyBo): R&lt;br&gt;+ getInfo(String): R&amp;lt;ByScheduleWeeklyVo&amp;gt;&lt;br&gt;+ edit(ByScheduleWeeklyBo): R&amp;lt;Void&amp;gt;&lt;br&gt;+ list(ByScheduleWeeklyBo): R&lt;br&gt;+ editSerialInGroup(ByScheduleWeeklyBo): R&lt;br&gt;+ syncWeekly(ByScheduleWeeklySyncBo): R&lt;br&gt;+ WeeklyColumnVoList(ByScheduleWeeklyBo): R&lt;br&gt;+ getScheduleWeeklyByGroupList(ByScheduleWeeklyBo): R&lt;/p&gt;&lt;hr size=&quot;1&quot;&gt;&lt;p style=&quot;margin:0 0 0 4px;line-height:1.6;&quot;&gt;+ ByScheduleWeeklyController(IByScheduleWeeklyService, IByScheduleWeeklyDetailService, IByScheduleGroupService, IByStaffDictService, IByScheduleVacationService): &lt;/p&gt;" style="verticalAlign=top;align=left;overflow=fill;fontSize=14;fontFamily=Helvetica;html=1;rounded=0;shadow=0;comic=0;labelBackgroundColor=none;strokeWidth=1;" parent="1" vertex="1">
          <mxGeometry x="-350" y="-630" width="409" height="607" as="geometry" />
        </mxCell>
        <mxCell id="64R3wsa1a4p_bq1R0-y5-4" style="edgeStyle=orthogonalEdgeStyle;rounded=0;orthogonalLoop=1;jettySize=auto;html=1;entryX=1.002;entryY=0.206;entryDx=0;entryDy=0;entryPerimeter=0;" parent="1" source="node1" target="node3" edge="1">
          <mxGeometry relative="1" as="geometry" />
        </mxCell>
        <mxCell id="node1" value="&lt;div style=&quot;text-align: center;&quot;&gt;&lt;span style=&quot;background-color: initial;&quot;&gt;&lt;b&gt;周排班记录明细&lt;/b&gt;&lt;/span&gt;&lt;/div&gt;&lt;p style=&quot;margin:0px;margin-top:4px;text-align:center;&quot;&gt;&lt;b&gt;ByScheduleWeeklyDetailController&lt;/b&gt;&lt;/p&gt;&lt;hr size=&quot;1&quot;&gt;&lt;p style=&quot;margin:0 0 0 4px;line-height:1.6;&quot;&gt;+ edit(ByScheduleWeeklyDetailBo): R&amp;lt;Void&amp;gt;&lt;br&gt;+ remove(String[]): R&amp;lt;Void&amp;gt;&lt;br&gt;+ getInfo(String): R&amp;lt;ByScheduleWeeklyDetailVo&amp;gt;&lt;br&gt;+ add(ByScheduleWeeklyDetailBo): R&amp;lt;Void&amp;gt;&lt;br&gt;+ export(ByScheduleWeeklyDetailBo, HttpServletResponse): void&lt;br&gt;+ delWeeklyDetailByScheduleWeeklyId(ByScheduleWeeklyDetailBo): R&amp;lt;Void&amp;gt;&lt;br&gt;+ list(ByScheduleWeeklyDetailBo, PageQuery): TableDataInfo&amp;lt;ByScheduleWeeklyDetailVo&amp;gt;&lt;/p&gt;&lt;hr size=&quot;1&quot;&gt;&lt;p style=&quot;margin:0 0 0 4px;line-height:1.6;&quot;&gt;+ ByScheduleWeeklyDetailController(IByScheduleWeeklyDetailService): &lt;/p&gt;" style="verticalAlign=top;align=left;overflow=fill;fontSize=14;fontFamily=Helvetica;html=1;rounded=0;shadow=0;comic=0;labelBackgroundColor=none;strokeWidth=1;" parent="1" vertex="1">
          <mxGeometry x="230" y="-630" width="513" height="250" as="geometry" />
        </mxCell>
        <mxCell id="node9" value="&lt;div style=&quot;text-align: center;&quot;&gt;&lt;span style=&quot;background-color: initial;&quot;&gt;&lt;b&gt;班次字典表&lt;/b&gt;&lt;/span&gt;&lt;/div&gt;&lt;p style=&quot;margin:0px;margin-top:4px;text-align:center;&quot;&gt;&lt;b&gt;ByShiftTimeDictController&lt;/b&gt;&lt;/p&gt;&lt;hr size=&quot;1&quot;&gt;&lt;p style=&quot;margin:0 0 0 4px;line-height:1.6;&quot;&gt;+ export(ByShiftTimeDictBo, HttpServletResponse): void&lt;br&gt;+ edit(ByShiftTimeDictBo): R&amp;lt;Void&amp;gt;&lt;br&gt;+ getInfo(String): R&amp;lt;ByShiftTimeDictVo&amp;gt;&lt;br&gt;+ remove(String[]): R&amp;lt;Void&amp;gt;&lt;br&gt;+ add(ByShiftTimeDictBo): R&amp;lt;Void&amp;gt;&lt;br&gt;+ list(ByShiftTimeDictBo, PageQuery): TableDataInfo&amp;lt;ByShiftTimeDictVo&amp;gt;&lt;/p&gt;&lt;hr size=&quot;1&quot;&gt;&lt;p style=&quot;margin:0 0 0 4px;line-height:1.6;&quot;&gt;+ ByShiftTimeDictController(IByShiftTimeDictService): &lt;/p&gt;" style="verticalAlign=top;align=left;overflow=fill;fontSize=14;fontFamily=Helvetica;html=1;rounded=0;shadow=0;comic=0;labelBackgroundColor=none;strokeWidth=1;" parent="1" vertex="1">
          <mxGeometry x="216.5" y="-890" width="430" height="193" as="geometry" />
        </mxCell>
        <mxCell id="node6" value="&lt;div style=&quot;text-align: center;&quot;&gt;&lt;span style=&quot;background-color: initial;&quot;&gt;&lt;b&gt;工作人员字典&lt;/b&gt;&lt;/span&gt;&lt;/div&gt;&lt;p style=&quot;margin:0px;margin-top:4px;text-align:center;&quot;&gt;&lt;b&gt;ByStaffDictController&lt;/b&gt;&lt;/p&gt;&lt;hr size=&quot;1&quot;&gt;&lt;p style=&quot;margin:0 0 0 4px;line-height:1.6;&quot;&gt;+ add(ByStaffDictBo): R&amp;lt;Void&amp;gt;&lt;br&gt;+ edit(ByStaffDictBo): R&amp;lt;Void&amp;gt;&lt;br&gt;+ list(ByStaffDictBo, PageQuery): TableDataInfo&amp;lt;ByStaffDictVo&amp;gt;&lt;br&gt;+ staffList(ByStaffDictBo): R&lt;br&gt;+ export(ByStaffDictBo, HttpServletResponse): void&lt;br&gt;+ remove(String[]): R&amp;lt;Void&amp;gt;&lt;br&gt;+ addTemp(ByStaffDictBo): R&lt;br&gt;+ getInfo(String): R&amp;lt;ByStaffDictVo&amp;gt;&lt;br&gt;+ getPinYinHeadChar(String): String&lt;/p&gt;&lt;hr size=&quot;1&quot;&gt;&lt;p style=&quot;margin:0 0 0 4px;line-height:1.6;&quot;&gt;+ ByStaffDictController(IByStaffDictService): &lt;/p&gt;" style="verticalAlign=top;align=left;overflow=fill;fontSize=14;fontFamily=Helvetica;html=1;rounded=0;shadow=0;comic=0;labelBackgroundColor=none;strokeWidth=1;" parent="1" vertex="1">
          <mxGeometry x="-350" y="30" width="405" height="262" as="geometry" />
        </mxCell>
        <mxCell id="64R3wsa1a4p_bq1R0-y5-6" style="edgeStyle=orthogonalEdgeStyle;rounded=0;orthogonalLoop=1;jettySize=auto;html=1;exitX=0.5;exitY=0;exitDx=0;exitDy=0;" parent="1" source="node11" target="node6" edge="1">
          <mxGeometry relative="1" as="geometry" />
        </mxCell>
        <mxCell id="node11" value="&lt;div style=&quot;text-align: center;&quot;&gt;&lt;span style=&quot;background-color: initial;&quot;&gt;&lt;b&gt;工作人员分组&lt;/b&gt;&lt;/span&gt;&lt;/div&gt;&lt;p style=&quot;margin:0px;margin-top:4px;text-align:center;&quot;&gt;&lt;b&gt;ByStaffVsGroupController&lt;/b&gt;&lt;/p&gt;&lt;hr size=&quot;1&quot;&gt;&lt;p style=&quot;margin:0 0 0 4px;line-height:1.6;&quot;&gt;+ add(ByStaffVsGroupBo): R&amp;lt;Void&amp;gt;&lt;br&gt;+ edit(ByStaffVsGroupBo): R&amp;lt;Void&amp;gt;&lt;br&gt;+ getInfo(String): R&amp;lt;ByStaffVsGroupVo&amp;gt;&lt;br&gt;+ remove(String[]): R&amp;lt;Void&amp;gt;&lt;br&gt;+ list(ByStaffVsGroupBo, PageQuery): TableDataInfo&amp;lt;ByStaffVsGroupVo&amp;gt;&lt;br&gt;+ export(ByStaffVsGroupBo, HttpServletResponse): void&lt;/p&gt;&lt;hr size=&quot;1&quot;&gt;&lt;p style=&quot;margin:0 0 0 4px;line-height:1.6;&quot;&gt;+ ByStaffVsGroupController(IByStaffVsGroupService): &lt;/p&gt;" style="verticalAlign=top;align=left;overflow=fill;fontSize=14;fontFamily=Helvetica;html=1;rounded=0;shadow=0;comic=0;labelBackgroundColor=none;strokeWidth=1;" parent="1" vertex="1">
          <mxGeometry x="-347.5" y="370" width="400" height="193" as="geometry" />
        </mxCell>
        <mxCell id="95SngkljHhS77NUoory5-2" style="edgeStyle=orthogonalEdgeStyle;rounded=0;orthogonalLoop=1;jettySize=auto;html=1;entryX=0;entryY=0.437;entryDx=0;entryDy=0;entryPerimeter=0;" edge="1" parent="1" source="95SngkljHhS77NUoory5-1" target="node3">
          <mxGeometry relative="1" as="geometry" />
        </mxCell>
        <mxCell id="95SngkljHhS77NUoory5-1" value="&lt;p style=&quot;margin:0px;margin-top:4px;text-align:center;&quot;&gt;&lt;b&gt;排班类型&lt;/b&gt;&lt;/p&gt;&lt;p style=&quot;margin:0px;margin-top:4px;text-align:center;&quot;&gt;&lt;b&gt;ByScheduleType&lt;/b&gt;&lt;br&gt;&lt;/p&gt;&lt;hr size=&quot;1&quot;&gt;&lt;p style=&quot;margin:0 0 0 4px;line-height:1.6;&quot;&gt;+ list(&lt;b style=&quot;text-align: center;&quot;&gt;ScheduleType&lt;/b&gt;Bo, PageQuery): TableDataInfo&amp;lt;&lt;b style=&quot;text-align: center;&quot;&gt;ScheduleType&lt;/b&gt;Vo&amp;gt;&lt;br&gt;+ add(&lt;b style=&quot;text-align: center;&quot;&gt;ScheduleType&lt;/b&gt;Bo): R&amp;lt;Void&amp;gt;&lt;br&gt;+ export(&lt;b style=&quot;text-align: center;&quot;&gt;ScheduleType&lt;/b&gt;Bo, HttpServletResponse): void&lt;br&gt;+ remove(String[]): R&amp;lt;Void&amp;gt;&lt;br&gt;+ edit(&lt;b style=&quot;text-align: center;&quot;&gt;ScheduleType&lt;/b&gt;Bo): R&amp;lt;Void&amp;gt;&lt;br&gt;+ getInfo(String): R&amp;lt;ByNoticeVo&amp;gt;&lt;/p&gt;&lt;hr size=&quot;1&quot;&gt;&lt;p style=&quot;margin:0 0 0 4px;line-height:1.6;&quot;&gt;&lt;br&gt;&lt;/p&gt;" style="verticalAlign=top;align=left;overflow=fill;fontSize=14;fontFamily=Helvetica;html=1;rounded=0;shadow=0;comic=0;labelBackgroundColor=none;strokeWidth=1;" vertex="1" parent="1">
          <mxGeometry x="-930" y="-480" width="480" height="230" as="geometry" />
        </mxCell>
      </root>
    </mxGraphModel>
  </diagram>
</mxfile>
